<svg xmlns="http://www.w3.org/2000/svg" version="1.1" width="1000" height="1125" viewBox="0 0 1000 1125">
  <g transform="matrix(1,0,0,1,1.7053025658242404e-13,0)">
    <svg viewBox="0 0 320 360" data-background-color="#ffffff" preserveAspectRatio="xMidYMid meet" height="1125" width="1000" xmlns="http://www.w3.org/2000/svg" xmlns:xlink="http://www.w3.org/1999/xlink">
      <defs></defs>
      <g id="tight-bounds" transform="matrix(1,0,0,1,0,0)">
        <svg viewBox="0 0 320 360" height="360" width="320">
          <g>
            <svg></svg>
          </g>
          <g>
            <svg viewBox="0 0 320 360" height="360" width="320">
              <g>
                <path d="M20.961 227.22l3.726 4.658-1.863-6.056c-0.466-2.795-3.726 0.466-1.863 1.398M25.153 224.425c1.397 2.329 2.795 4.658 2.795 6.987 0 3.261 2.795 4.658 5.123 5.589-3.261-3.726-5.124-13.974-7.918-12.576M204.017 26.929c7.918 0 15.371-0.932 23.756 0.931 20.495 5.124 37.729 15.371 49.374 29.811l32.606 52.169c1.397 13.042 4.192 27.482 3.726 43.319 3.261 0 2.795-4.658 6.521-5.59-3.726 9.316-5.59 20.961-6.521 34.469-2.329-7.453 0-18.632 0.466-24.687-3.261 5.124-5.124 1.397-5.124-0.932 0.466-3.726-1.397-3.261-2.795-4.658-5.124-4.658-8.384-9.782-12.11-17.7 2.329-6.055 2.795-14.905-4.658-19.563-2.329-1.397-5.124-3.726-6.521-7.453-1.863-5.124-5.124-11.179-4.193-19.097 0.466-2.329-6.987 5.124-11.179 1.863-18.166-12.576-36.332-27.016-58.224-39.127-11.645 0-20.029-4.192-24.221-9.316-3.726-4.658-0.932-10.713 4.658-11.179 3.261 0 6.987-0.932 9.782 0.932 0.466-1.863 2.329-4.192 4.657-4.192M157.904 16.215l0.932 0.466c4.658 0.932 6.987 7.453 12.11 5.124 0 3.261 0.466 6.521-0.466 8.85-1.397 3.726-5.59 3.726-8.85 3.726-31.208-1.863-49.374 11.179-68.471 22.358-5.124 3.261-10.713 5.59-14.906 9.782-20.029 18.632-41.921 35.866-47.045 70.335l-4.192 38.195c-0.466 4.192-5.124 8.384-4.192 13.508l3.26 22.824c-3.261-3.261-5.124 0.932-4.192 2.795 0.466 1.397 2.329 6.055 5.124 1.863 3.726 6.987 7.453 20.495 12.576 26.55 15.837 18.632 36.332 35.4 53.101 52.169 4.192-0.932 7.453-0.932 8.384-3.727 1.397 2.795-1.397 5.59-3.726 6.056 7.453 4.658 15.837 8.85 27.016 9.781 14.44 0.932 27.948 3.261 40.524 6.522 6.521-1.863 13.042-2.795 20.029-3.261 2.329 0 3.726-3.726 6.521-4.658l0.466-4.658c2.795 4.192 2.329-1.397 0.466-4.192 3.261 2.795 4.192 5.124 5.589 6.987 0-1.397 3.726-6.521 3.727-0.466l0.931-6.055c1.397-0.932 1.863 5.124 3.261 0.931 1.397-4.192 4.192-0.932 6.987-2.329-0.932 1.863-0.466 5.59 2.794 3.261l3.727-3.261c2.329 5.59 6.055 3.261 7.918 2.329 20.495-13.042 40.99-28.413 60.553-43.784l-0.466 6.055 2.329-7.453c2.329 2.329 4.192 0.466 5.124-0.931 2.795-4.658 6.521-9.316 12.577-13.508-7.453 20.029-16.303 35.866-27.482 48.908l-4.658 5.59c0 3.261-0.932 7.453-4.658 7.918-1.863 0.466-5.59-0.932-8.384 1.863-1.397 1.863 3.261 5.59-0.466 2.795-3.261-2.329-6.521 0-10.248 0.932-2.795 0.932 1.863 3.726 2.795 5.589 0.932 1.863 1.863 3.726 1.398 6.056l-5.124-5.59c-6.055 3.261-9.782 9.316-14.906 13.974-2.329 1.863-1.397 5.124-1.397 7.918-3.261 0-6.987-0.932-8.85 0.932-1.397 1.863-0.932 4.658-0.932 7.453-4.658-0.466-5.124-7.453-9.315-6.056-4.192 0.932-8.85 1.397-12.577 3.727 2.795 5.59-4.658 2.329-3.726 3.26-6.987-4.192-13.042-7.453-20.495-4.658-15.837-5.124-35.4-2.795-49.84-0.931 0-2.329 0.466-4.658-0.466-5.124-0.932 2.329-3.726 1.397-3.26 1.397-8.85-6.055-17.7-9.782-27.016-14.905-8.384 0.932-16.303-3.261-18.632-5.59-6.521-6.055-13.974-2.795-20.029-4.192-13.042-3.261-17.7-16.769-19.098-26.084-0.932-4.658-4.658-6.521-6.055-6.056-6.055-19.563-15.371-37.263-22.824-55.429-1.863-4.658-1.397-9.316-1.397-14.44 2.329 0.932 4.658 0.466 4.192-2.794-2.329-15.371-7.918-27.016-13.974-38.195 3.261-15.837 3.726-34.469 11.179-48.443 6.521-12.576 18.632-19.098 27.016-29.811 2.795-3.726 2.795-8.85 5.59-12.11 9.316-9.316 18.632-19.098 28.879-27.482 4.658-3.726 10.247 0 17.234-1.397 2.329-8.384 11.645-15.837 20.495-13.508 3.726 0.932 11.179-8.85 13.508-9.782 3.726-1.397 1.863 3.726 1.863 6.987 8.85-6.987 20.961-10.713 32.14-14.906" fill="#61777f" data-fill-palette-color="tertiary"></path>
              </g>
              <g transform="matrix(1,0,0,1,64,127.53016282926828)">
                <svg viewBox="0 0 192 104.93967434146343" height="104.93967434146343" width="192">
                  <g>
                    <svg viewBox="0 0 192 104.93967434146343" height="104.93967434146343" width="192">
                      <g>
                        <svg viewBox="0 0 192 104.93967434146343" height="104.93967434146343" width="192">
                          <g transform="matrix(1,0,0,1,0,63.42747921951221)">
                            <svg viewBox="0 0 192 41.51219512195122" height="41.51219512195122" width="192">
                              <g>
                                <svg viewBox="0 0 192 41.51219512195122" height="41.51219512195122" width="192">
                                  <g>
                                    <svg viewBox="0 0 192 41.51219512195122" height="41.51219512195122" width="192">
                                      <g transform="matrix(1,0,0,1,0,0)">
                                        <svg width="192" viewBox="3.299999952316284 -37.70000076293945 196.77999877929688 42.54999923706055" height="41.51219512195122" data-palette-color="#61777f">
                                          <path d="M29.8 4.85L29.8 4.85Q27.55 4.85 27.55 2.05L27.55 2.05 27.6-4.2Q26-2.4 23.4-1 20.8 0.4 17.8 0.4L17.8 0.4Q11.45 0.4 7.38-4.03 3.3-8.45 3.3-15.8L3.3-15.8Q3.3-24.8 8.45-30.4 13.6-36 21.5-36L21.5-36Q26.1-36 28.75-34.2 31.4-32.4 31.4-30L31.4-30Q31.4-29.05 30.8-28.45 30.2-27.85 29.4-27.85 28.6-27.85 28.05-28.05L28.05-28.05Q28.05-28.25 28.05-28.45L28.05-28.45Q28.05-30.3 26.23-31.68 24.4-33.05 20.7-33.05L20.7-33.05Q14.35-33.05 10.63-28.78 6.9-24.5 6.9-17.18 6.9-9.85 9.85-6.2 12.8-2.55 18-2.55L18-2.55Q20.8-2.55 23.08-3.68 25.35-4.8 27.7-7.15L27.7-7.15 27.8-16 24.45-16Q21-16 18-15.7L18-15.7Q17.5-16.2 17.5-16.8L17.5-16.8Q17.5-17.8 19.28-18.25 21.05-18.7 25.05-18.7 29.05-18.7 30-18.15 30.95-17.6 30.95-16.05L30.95-16.05 30.8 1.9Q30.8 3 31.95 3.4L31.95 3.4Q31.25 4.85 29.8 4.85ZM59.3-22.75L59.3-22.75 59.3-2.55Q59.3-1.4 60.5-1.05L60.5-1.05Q59.7 0.4 58.35 0.4L58.35 0.4Q56.15 0.4 56.15-2.45L56.15-2.45 56.15-4.5Q53.3 0.4 47.75 0.4L47.75 0.4Q39.55 0.4 39.55-8.05L39.55-8.05 39.55-22.6Q39.55-23.75 38.4-24.15L38.4-24.15Q39.1-25.6 40.45-25.6L40.45-25.6Q42.7-25.6 42.7-22.75L42.7-22.75 42.7-8.2Q42.7-5.45 43.95-3.98 45.2-2.5 48.02-2.5 50.85-2.5 52.95-4.08 55.05-5.65 56.15-8.45L56.15-8.45 56.15-22.6Q56.15-23.75 55-24.15L55-24.15Q55.85-25.6 57.15-25.6L57.15-25.6Q59.3-25.6 59.3-22.75ZM69.95-14.35L80.4-15.1Q82.5-15.25 82.5-17.57 82.5-19.9 81.1-21.48 79.7-23.05 77.5-23.05L77.5-23.05Q74.55-23.05 72.45-20.73 70.35-18.4 69.95-14.35L69.95-14.35ZM69.85-12.5Q69.8-7.35 72.07-4.85 74.35-2.35 78.37-2.35 82.4-2.35 85.05-4.85L85.05-4.85Q85.65-4.5 85.65-3.7L85.65-3.7Q85.65-2.25 83.37-0.93 81.1 0.4 77.95 0.4L77.95 0.4Q72.95 0.4 69.67-2.83 66.4-6.05 66.4-11.9 66.4-17.75 69.95-21.68 73.5-25.6 77.95-25.6L77.95-25.6Q81.5-25.6 83.7-23.13 85.9-20.65 85.9-17.45L85.9-17.45Q85.9-15.25 84.62-14.13 83.35-13 80.55-12.95L80.55-12.95 69.85-12.6 69.85-12.5ZM109.19-20.75L109.19-20.75Q109.19-19.7 108.42-19.1 107.64-18.5 106.69-18.5 105.74-18.5 105.09-18.9L105.09-18.9Q105.39-19.4 105.39-20.4 105.39-21.4 104.14-22.33 102.89-23.25 100.34-23.25 97.79-23.25 96.32-22.13 94.84-21 94.84-19.53 94.84-18.05 96.34-16.9 97.84-15.75 99.99-14.8 102.14-13.85 104.29-12.78 106.44-11.7 107.94-10.1 109.44-8.5 109.44-6.55L109.44-6.55Q109.44-3.8 106.79-1.7 104.14 0.4 99.99 0.4 95.84 0.4 93.29-1.2 90.74-2.8 90.74-5.4L90.74-5.4Q90.74-6.9 91.52-7.7 92.29-8.5 93.24-8.5 94.19-8.5 94.79-7.9L94.79-7.9Q94.14-6.85 94.14-5.8L94.14-5.8Q94.14-4.05 95.59-3 97.04-1.95 99.87-1.95 102.69-1.95 104.39-3.18 106.09-4.4 106.09-6.18 106.09-7.95 104.62-9.18 103.14-10.4 101.02-11.3 98.89-12.2 96.77-13.13 94.64-14.05 93.17-15.5 91.69-16.95 91.69-18.85L91.69-18.85Q91.69-21.8 94.14-23.7 96.59-25.6 100.22-25.6 103.84-25.6 106.52-24.28 109.19-22.95 109.19-20.75ZM121.24-22.4L120.49-22.4 120.49-5.95Q120.49-4.05 121.24-3.25 121.99-2.45 123.74-2.45L123.74-2.45Q126.99-2.45 129.84-5.1L129.84-5.1Q130.49-4.6 130.49-3.85L130.49-3.85Q130.49-2.25 128.39-0.93 126.29 0.4 123.09 0.4L123.09 0.4Q117.29 0.4 117.29-6L117.29-6 117.29-22.4Q113.09-22.55 113.09-24.2L113.09-24.2Q113.09-24.95 113.59-25.4L113.59-25.4Q115.19-25.15 116.34-25.15L116.34-25.15 117.29-25.15 117.29-29.85Q117.29-30.95 116.14-31.45L116.14-31.45Q116.89-32.85 118.24-32.85L118.24-32.85Q120.49-32.85 120.49-30L120.49-30 120.49-25.15 129.09-25.15Q129.29-24.8 129.29-24.35L129.29-24.35Q129.29-22.4 121.24-22.4L121.24-22.4ZM139.89-34.9L139.89-34.9 139.89-2.55Q139.89-1.45 141.04-1.05L141.04-1.05Q140.24 0.4 138.94 0.4L138.94 0.4Q136.74 0.4 136.74-2.45L136.74-2.45 136.74-34.7Q136.74-35.8 135.59-36.3L135.59-36.3Q136.19-37.7 137.64-37.7L137.64-37.7Q139.89-37.7 139.89-34.9ZM151.08-35.8Q152.19-35.8 152.88-35.18 153.58-34.55 153.58-33.45 153.58-32.35 152.66-31.5 151.73-30.65 150.58-30.65 149.44-30.65 148.71-31.33 147.98-32 147.98-33.13 147.98-34.25 148.98-35.02 149.98-35.8 151.08-35.8ZM152.58-22.75L152.58-22.75 152.58-2.55Q152.58-1.45 153.73-1.05L153.73-1.05Q152.94 0.4 151.63 0.4L151.63 0.4Q149.44 0.4 149.44-2.45L149.44-2.45 149.44-22.6Q149.44-23.75 148.28-24.15L148.28-24.15Q148.98-25.6 150.33-25.6L150.33-25.6Q152.58-25.6 152.58-22.75ZM178.78-20.75L178.78-20.75Q178.78-19.7 178.01-19.1 177.23-18.5 176.28-18.5 175.33-18.5 174.68-18.9L174.68-18.9Q174.98-19.4 174.98-20.4 174.98-21.4 173.73-22.33 172.48-23.25 169.93-23.25 167.38-23.25 165.91-22.13 164.43-21 164.43-19.53 164.43-18.05 165.93-16.9 167.43-15.75 169.58-14.8 171.73-13.85 173.88-12.78 176.03-11.7 177.53-10.1 179.03-8.5 179.03-6.55L179.03-6.55Q179.03-3.8 176.38-1.7 173.73 0.4 169.58 0.4 165.43 0.4 162.88-1.2 160.33-2.8 160.33-5.4L160.33-5.4Q160.33-6.9 161.11-7.7 161.88-8.5 162.83-8.5 163.78-8.5 164.38-7.9L164.38-7.9Q163.73-6.85 163.73-5.8L163.73-5.8Q163.73-4.05 165.18-3 166.63-1.95 169.46-1.95 172.28-1.95 173.98-3.18 175.68-4.4 175.68-6.18 175.68-7.95 174.21-9.18 172.73-10.4 170.61-11.3 168.48-12.2 166.36-13.13 164.23-14.05 162.76-15.5 161.28-16.95 161.28-18.85L161.28-18.85Q161.28-21.8 163.73-23.7 166.18-25.6 169.81-25.6 173.43-25.6 176.11-24.28 178.78-22.95 178.78-20.75ZM190.83-22.4L190.08-22.4 190.08-5.95Q190.08-4.05 190.83-3.25 191.58-2.45 193.33-2.45L193.33-2.45Q196.58-2.45 199.43-5.1L199.43-5.1Q200.08-4.6 200.08-3.85L200.08-3.85Q200.08-2.25 197.98-0.93 195.88 0.4 192.68 0.4L192.68 0.4Q186.88 0.4 186.88-6L186.88-6 186.88-22.4Q182.68-22.55 182.68-24.2L182.68-24.2Q182.68-24.95 183.18-25.4L183.18-25.4Q184.78-25.15 185.93-25.15L185.93-25.15 186.88-25.15 186.88-29.85Q186.88-30.95 185.73-31.45L185.73-31.45Q186.48-32.85 187.83-32.85L187.83-32.85Q190.08-32.85 190.08-30L190.08-30 190.08-25.15 198.68-25.15Q198.88-24.8 198.88-24.35L198.88-24.35Q198.88-22.4 190.83-22.4L190.83-22.4Z" opacity="1" transform="matrix(1,0,0,1,0,0)" fill="#61777f" class="undefined-text-0" data-fill-palette-color="primary" id="text-0"></path>
                                        </svg>
                                      </g>
                                    </svg>
                                  </g>
                                </svg>
                              </g>
                            </svg>
                          </g>
                          <g transform="matrix(1,0,0,1,67.3150731707317,0)">
                            <svg viewBox="0 0 57.3698536585366 57.3698536585366" height="57.3698536585366" width="57.3698536585366">
                              <g>
                                <svg xmlns="http://www.w3.org/2000/svg" xmlns:xlink="http://www.w3.org/1999/xlink" version="1.1" x="0" y="0" viewBox="0 0 100 100" style="enable-background:new 0 0 100 100;" xml:space="preserve" height="57.3698536585366" width="57.3698536585366" class="icon-icon-0" data-fill-palette-color="accent" id="icon-0">
                                  <path d="M50 0L0 50h12.5v50h75V50H100L50 0zM75 87.5H56.25V68.75h-12.5V87.5H25V42.676L50 25l25 17.676V87.5z" fill="#61777f" data-fill-palette-color="accent"></path>
                                </svg>
                              </g>
                            </svg>
                          </g>
                          <g></g>
                        </svg>
                      </g>
                    </svg>
                  </g>
                </svg>
              </g>
            </svg>
          </g>
        </svg>
        <rect width="320" height="360" fill="none" stroke="none" visibility="hidden"></rect>
      </g>
    </svg>
  </g>
</svg>